<?xml version="1.0" encoding="UTF-8"?><svg id="a" xmlns="http://www.w3.org/2000/svg" viewBox="0 0 308 308">
  <defs>
    <style>
      .b {
        fill: #fadcb9;
      }

      .c {
        fill: #91cd91;
      }

      .d {
        fill: none;
        stroke-miterlimit: 10;
      }

      .d,
      .e {
        stroke: #231f20;
      }

      .e {
        fill: #81d4f7;
        stroke-width: 2px;
      }
    </style>
  </defs>
  <path class="e"
    d="M1,214.32V93.49C1,42.41,42.41,1,93.49,1h120.83c82.4,0,123.67,99.63,65.4,157.9l-120.83,120.83C100.63,337.99,1,296.72,1,214.32Z" />
  <g>
    <g>
      <path class="b" d="M163.36,241.35l-65.34-.06-13.97-201.64h58.91V169.5h.85L187.95,39.65h63l-87.6,201.7Z" />
      <path class="c" d="M160.36,244.35l-65.34-.06-13.97-201.64h58.91V172.5h.85L184.95,42.65h63l-87.6,201.7Z" />
      <path class="b" d="M157.36,247.35l-65.34-.06-13.97-201.64h58.91V175.5h.85L181.95,45.65h63l-87.6,201.7Z" />
      <path class="c" d="M154.36,250.35l-65.34-.06-13.97-201.64h58.91V178.5h.85L178.95,48.65h63l-87.6,201.7Z" />
      <path class="b" d="M157.36,247.35l-65.34-.06-13.97-201.64h58.91V175.5h.85L181.95,45.65h63l-87.6,201.7Z" />
      <path class="c" d="M154.36,250.35l-65.34-.06-13.97-201.64h58.91V178.5h.85L178.95,48.65h63l-87.6,201.7Z" />
      <path class="b" d="M151.36,253.35l-65.34-.06-13.97-201.64h58.91V181.5h.85L175.95,51.65h63l-87.6,201.7Z" />
      <path class="c" d="M148.36,256.35l-65.34-.06-13.97-201.64h58.91V184.5h.85L172.95,54.65h63l-87.6,201.7Z" />
      <path class="b" d="M157.36,247.35l-65.34-.06-13.97-201.64h58.91V175.5h.85L181.95,45.65h63l-87.6,201.7Z" />
      <path class="c" d="M154.36,250.35l-65.34-.06-13.97-201.64h58.91V178.5h.85L178.95,48.65h63l-87.6,201.7Z" />
      <path class="b" d="M151.36,253.35l-65.34-.06-13.97-201.64h58.91V181.5h.85L175.95,51.65h63l-87.6,201.7Z" />
      <path class="c" d="M148.36,256.35l-65.34-.06-13.97-201.64h58.91V184.5h.85L172.95,54.65h63l-87.6,201.7Z" />
      <path class="b" d="M151.36,253.35l-65.34-.06-13.97-201.64h58.91V181.5h.85L175.95,51.65h63l-87.6,201.7Z" />
      <path class="c" d="M148.36,256.35l-65.34-.06-13.97-201.64h58.91V184.5h.85L172.95,54.65h63l-87.6,201.7Z" />
      <path class="b" d="M145.36,259.35l-65.34-.06-13.97-201.64h58.91V187.5h.85L169.95,57.65h63l-87.6,201.7Z" />
      <path class="c" d="M142.36,262.35l-65.34-.06L63.05,60.65h58.91V190.5h.85L166.95,60.65h63l-87.6,201.7Z" />
      <path class="b" d="M157.36,247.35l-65.34-.06-13.97-201.64h58.91V175.5h.85L181.95,45.65h63l-87.6,201.7Z" />
      <path class="c" d="M154.36,250.35l-65.34-.06-13.97-201.64h58.91V178.5h.85L178.95,48.65h63l-87.6,201.7Z" />
      <path class="b" d="M151.36,253.35l-65.34-.06-13.97-201.64h58.91V181.5h.85L175.95,51.65h63l-87.6,201.7Z" />
      <path class="c" d="M148.36,256.35l-65.34-.06-13.97-201.64h58.91V184.5h.85L172.95,54.65h63l-87.6,201.7Z" />
      <path class="b" d="M151.36,253.35l-65.34-.06-13.97-201.64h58.91V181.5h.85L175.95,51.65h63l-87.6,201.7Z" />
      <path class="c" d="M148.36,256.35l-65.34-.06-13.97-201.64h58.91V184.5h.85L172.95,54.65h63l-87.6,201.7Z" />
      <path class="b" d="M145.36,259.35l-65.34-.06-13.97-201.64h58.91V187.5h.85L169.95,57.65h63l-87.6,201.7Z" />
      <path class="c" d="M142.36,262.35l-65.34-.06L63.05,60.65h58.91V190.5h.85L166.95,60.65h63l-87.6,201.7Z" />
      <path class="b" d="M151.36,253.35l-65.34-.06-13.97-201.64h58.91V181.5h.85L175.95,51.65h63l-87.6,201.7Z" />
      <path class="c" d="M148.36,256.35l-65.34-.06-13.97-201.64h58.91V184.5h.85L172.95,54.65h63l-87.6,201.7Z" />
      <path class="b" d="M145.36,259.35l-65.34-.06-13.97-201.64h58.91V187.5h.85L169.95,57.65h63l-87.6,201.7Z" />
      <path class="c" d="M142.36,262.35l-65.34-.06L63.05,60.65h58.91V190.5h.85L166.95,60.65h63l-87.6,201.7Z" />
      <path class="b" d="M145.36,259.35l-65.34-.06-13.97-201.64h58.91V187.5h.85L169.95,57.65h63l-87.6,201.7Z" />
      <path class="c" d="M142.36,262.35l-65.34-.06L63.05,60.65h58.91V190.5h.85L166.95,60.65h63l-87.6,201.7Z" />
      <path class="b" d="M139.36,265.35l-65.34-.06L60.05,63.65h58.91V193.5h.85L163.95,63.65h63l-87.6,201.7Z" />
      <path class="c" d="M136.36,268.35l-65.34-.06-13.97-201.64h58.91V196.5h.85l44.15-129.85h63l-87.6,201.7Z" />
    </g>
    <g>
      <line class="d" x1="250.95" y1="39.87" x2="223.95" y2="66.87" />
      <path class="d"
        d="M57.05,66.87l27-27h58.91l-27,27-.21,132.36,45.21-132.36,27-27h63l-87.6,201.7-27,27-65.34-.06-13.97-201.64Zm86.55-27.45l-.58,80.19m17.93-52.74h63l-87.6,201.7m-20.4-201.7H57.05" />
    </g>
  </g>
</svg>